<svg width="1842" height="44" viewBox="0 0 1842 44" fill="none" xmlns="http://www.w3.org/2000/svg">
<path d="M0 0L3.4716 39.2348L19.8 44L36.2296 39.237L39.6 0H0ZM29.26 32.3884L19.8154 35.0372H19.8L10.3466 32.3884L9.6932 25.421H14.3308L14.6608 28.7782L19.7978 30.184L24.9458 28.776L25.4848 22.066H9.4908L9.0794 17.6528H25.8874L26.2702 13.2396H8.6328L8.2456 8.8264H31.3588L29.26 32.3884Z" fill="#A1A1AA"/>
<path d="M99.6 0L103.072 39.2128L119.4 44L135.827 39.215L139.2 0H99.6ZM130.508 13.3056H112.965L113.343 17.7408H130.277L128.9 32.1838L119.558 35.222L110.14 32.021L109.507 25.5706H113.959L114.311 28.6748L119.591 30.4678L124.753 28.7892L125.406 22.1782H109.315L108.079 8.8682H130.985L130.508 13.3056Z" fill="#A1A1AA"/>
<path d="M199.2 7.33297C199.2 5.38814 199.973 3.52297 201.348 2.14778C202.723 0.772578 204.588 0 206.533 0H221.201C223.146 0 225.012 0.772694 226.387 2.1481C227.762 3.5235 228.535 5.38895 228.535 7.33407C228.535 9.27918 227.762 11.1446 226.387 12.52C225.012 13.8954 223.146 14.6681 221.201 14.6681H213.868V36.6692C213.868 38.1194 213.437 39.5368 212.631 40.7424C211.825 41.9479 210.68 42.8875 209.34 43.4422C208.001 43.997 206.526 44.142 205.104 43.859C203.682 43.576 202.375 42.8776 201.35 41.8522C200.325 40.8268 199.626 39.5204 199.343 38.0982C199.06 36.6759 199.205 35.2017 199.76 33.8618C200.315 32.522 201.254 31.3767 202.46 30.5708C203.665 29.7649 205.083 29.3345 206.533 29.3341C204.588 29.3341 202.723 28.5615 201.348 27.1863C199.973 25.8111 199.2 23.9459 199.2 22.0011C199.2 20.0563 199.973 18.1911 201.348 16.8159C202.723 15.4407 204.588 14.6681 206.533 14.6681C205.57 14.6681 204.616 14.4784 203.726 14.1097C202.836 13.7411 202.028 13.2007 201.347 12.5196C200.666 11.8384 200.126 11.0298 199.758 10.1398C199.389 9.24992 199.2 8.29613 199.2 7.33297ZM213.868 22.0011C213.868 23.9459 214.641 25.8111 216.016 27.1863C217.391 28.5615 219.256 29.3341 221.201 29.3341C223.146 29.3341 225.011 28.5615 226.386 27.1863C227.761 25.8111 228.534 23.9459 228.534 22.0011C228.534 20.0563 227.761 18.1911 226.386 16.8159C225.011 15.4407 223.146 14.6681 221.201 14.6681C219.256 14.6681 217.391 15.4407 216.016 16.8159C214.641 18.1911 213.868 20.0563 213.868 22.0011Z" fill="#A1A1AA"/>
<path d="M303.206 4.97128C302.447 5.4099 301.649 6.61688 301.555 9.25468C301.528 9.85218 301.267 10.415 300.827 10.8207C300.388 11.2264 299.806 11.4421 299.208 11.421C298.61 11.3999 298.045 11.1436 297.635 10.7078C297.226 10.2721 297.005 9.69224 297.02 9.09435C297.135 5.86365 298.158 2.64808 300.938 1.0418C303.727 -0.5675 307.033 0.16455 309.895 1.68915C310.426 1.97235 310.823 2.45494 310.998 3.03075C311.173 3.60656 311.113 4.22842 310.829 4.75953C310.546 5.29063 310.064 5.68749 309.488 5.86278C308.912 6.03808 308.29 5.97746 307.759 5.69425C305.421 4.44493 303.969 4.53568 303.206 4.97128ZM315.37 8.90075C315.6 8.71085 315.864 8.56803 316.149 8.48046C316.434 8.39289 316.733 8.36227 317.03 8.39036C317.326 8.41845 317.615 8.5047 317.878 8.64417C318.141 8.78365 318.374 8.97363 318.564 9.20325C320.336 11.3536 321.925 13.6485 323.314 16.064C326.46 21.515 328.399 27.0991 328.922 31.7818C329.182 34.1202 329.103 36.3466 328.559 38.2554C328.005 40.1762 326.935 41.9156 325.138 42.9532C322.963 44.2086 320.449 44.0331 318.153 43.1952C315.848 42.3542 313.473 40.7661 311.211 38.7C310.773 38.2927 310.514 37.7292 310.489 37.1318C310.465 36.5344 310.677 35.9516 311.08 35.5099C311.483 35.0683 312.044 34.8035 312.641 34.7733C313.238 34.743 313.823 34.9497 314.269 35.3483C316.265 37.1694 318.138 38.3612 319.705 38.9299C321.284 39.5047 322.276 39.3686 322.869 39.0237C323.365 38.7363 323.867 38.1525 324.194 37.006C324.527 35.8444 324.632 34.2533 324.412 32.287C323.973 28.3576 322.294 23.3724 319.381 18.3327C318.12 16.14 316.678 14.0566 315.07 12.1042C314.881 11.8746 314.738 11.6099 314.65 11.3251C314.563 11.0403 314.532 10.741 314.56 10.4444C314.588 10.1477 314.674 9.85954 314.814 9.59624C314.953 9.33295 315.143 9.0997 315.373 8.90983" fill="#A1A1AA"/>
<path d="M332.398 22.6191C332.398 21.7419 331.75 20.4442 329.515 19.0496C329.262 18.8917 329.043 18.6856 328.87 18.4429C328.696 18.2003 328.573 17.9259 328.506 17.6354C328.438 17.345 328.429 17.0442 328.478 16.7501C328.527 16.4561 328.634 16.1746 328.792 15.9218C329.111 15.4111 329.619 15.0481 330.206 14.9125C330.496 14.8454 330.797 14.8361 331.091 14.8852C331.385 14.9343 331.667 15.0409 331.92 15.1988C334.66 16.914 336.935 19.4066 336.935 22.6191C336.935 25.8377 334.648 28.3364 331.896 30.0516C331.385 30.3578 330.775 30.4512 330.196 30.3117C329.618 30.1722 329.117 29.8109 328.802 29.3058C328.488 28.8006 328.384 28.192 328.514 27.6112C328.644 27.0303 328.997 26.5238 329.497 26.2007C331.747 24.7971 332.398 23.4964 332.398 22.6191ZM322.908 31.1859C322.958 31.4797 322.95 31.7804 322.883 32.0709C322.817 32.3614 322.694 32.636 322.522 32.879C322.349 33.1219 322.13 33.3286 321.878 33.487C321.626 33.6455 321.345 33.7527 321.051 33.8026C318.303 34.2587 315.521 34.4854 312.735 34.4802C306.443 34.4802 300.635 33.37 296.318 31.4794C294.162 30.5386 292.277 29.3558 290.898 27.928C289.503 26.4942 288.535 24.6913 288.535 22.6191C288.535 20.1084 289.945 18.0211 291.817 16.4481C293.699 14.8721 296.264 13.6107 299.183 12.685C299.757 12.5029 300.379 12.5561 300.914 12.833C301.178 12.97 301.413 13.1579 301.605 13.3858C301.797 13.6137 301.943 13.8772 302.033 14.1612C302.123 14.4453 302.156 14.7443 302.131 15.0412C302.105 15.3381 302.022 15.6271 301.885 15.8917C301.748 16.1563 301.56 16.3914 301.332 16.5834C301.104 16.7754 300.841 16.9206 300.557 17.0108C297.985 17.8275 296.013 18.853 294.736 19.9269C293.448 21.0038 293.073 21.9325 293.073 22.6191C293.073 23.1939 293.33 23.9199 294.159 24.7759C295 25.6441 296.325 26.5304 298.137 27.323C301.757 28.9081 306.915 29.9427 312.735 29.9427C315.412 29.9427 317.959 29.7249 320.292 29.3286C320.585 29.2787 320.886 29.2872 321.177 29.3535C321.467 29.4199 321.742 29.5428 321.985 29.7153C322.228 29.8877 322.434 30.1064 322.593 30.3587C322.751 30.6111 322.858 30.8921 322.908 31.1859Z" fill="#A1A1AA"/>
<path d="M303.273 39.0267C304.029 39.4654 305.478 39.5531 307.807 38.3159C308.071 38.176 308.359 38.0894 308.655 38.0609C308.952 38.0324 309.251 38.0627 309.536 38.1499C309.821 38.2371 310.086 38.3796 310.316 38.5692C310.546 38.7589 310.736 38.9919 310.876 39.2551C311.016 39.5183 311.103 39.8064 311.131 40.1031C311.16 40.3997 311.129 40.6991 311.042 40.9841C310.955 41.269 310.813 41.534 310.623 41.7639C310.433 41.9938 310.2 42.1841 309.937 42.324C307.081 43.8395 303.784 44.5625 301.004 42.9592C298.215 41.3469 297.193 38.1192 297.087 34.8764C297.076 34.2807 297.3 33.7045 297.71 33.2724C298.12 32.8403 298.684 32.5869 299.28 32.5671C299.875 32.5472 300.455 32.7624 300.893 33.1662C301.331 33.57 301.593 34.13 301.621 34.7252C301.712 37.3721 302.511 38.5881 303.273 39.0267ZM300.599 26.5244C300.035 26.3149 299.577 25.8901 299.327 25.3432C299.076 24.7964 299.053 24.1723 299.262 23.6083C300.175 21.1429 301.37 18.5959 302.831 16.067C305.977 10.6159 309.843 6.14498 313.637 3.34988C315.53 1.95535 317.497 0.911725 319.423 0.43075C321.362 -0.0532497 323.407 0.00422524 325.201 1.0418C327.379 2.29718 328.48 4.55988 328.904 6.9708C329.33 9.38778 329.14 12.2373 328.48 15.2291C328.427 15.53 328.313 15.8171 328.146 16.073C327.979 16.329 327.762 16.5485 327.508 16.7185C327.254 16.8885 326.968 17.0054 326.668 17.0622C326.368 17.119 326.059 17.1145 325.76 17.0491C325.462 16.9836 325.18 16.8585 324.931 16.6812C324.682 16.504 324.471 16.2783 324.311 16.0176C324.152 15.7569 324.047 15.4667 324.002 15.1643C323.957 14.862 323.974 14.5537 324.052 14.258C324.629 11.6202 324.726 9.39988 324.436 7.75428C324.145 6.10263 323.528 5.3131 322.935 4.97128C322.439 4.6839 321.68 4.54173 320.525 4.83213C319.351 5.12555 317.923 5.83038 316.329 7.00408C313.147 9.34543 309.668 13.2961 306.761 18.3357C305.49 20.5251 304.404 22.8169 303.515 25.1874C303.305 25.7513 302.881 26.209 302.334 26.4597C301.787 26.7104 301.163 26.7337 300.599 26.5244Z" fill="#A1A1AA"/>
<path d="M317.152 22.1956C317.152 23.2867 316.718 24.3331 315.947 25.1047C315.175 25.8762 314.129 26.3096 313.038 26.3096C311.947 26.3096 310.9 25.8762 310.129 25.1047C309.357 24.3331 308.924 23.2867 308.924 22.1956C308.924 21.1045 309.357 20.0581 310.129 19.2866C310.9 18.5151 311.947 18.0816 313.038 18.0816C314.129 18.0816 315.175 18.5151 315.947 19.2866C316.718 20.0581 317.152 21.1045 317.152 22.1956Z" fill="#A1A1AA"/>
<mask id="mask0_73_88" style="mask-type:luminance" maskUnits="userSpaceOnUse" x="396" y="0" width="45" height="44">
<path d="M396.935 0H440.935V44H396.935V0Z" fill="white"/>
</mask>
<g mask="url(#mask0_73_88)">
<path d="M439.888 6.43334e-06H397.98C397.843 6.22191e-06 397.707 0.0270966 397.58 0.0797273C397.453 0.132358 397.338 0.209496 397.241 0.306728C397.144 0.403959 397.067 0.519376 397.014 0.646373C396.962 0.773369 396.935 0.909454 396.935 1.04684V42.955C396.935 43.0925 396.962 43.2288 397.014 43.3559C397.067 43.483 397.144 43.5985 397.241 43.6958C397.339 43.793 397.454 43.8701 397.581 43.9226C397.708 43.9752 397.844 44.0021 397.982 44.0018H439.89C440.028 44.0021 440.164 43.9752 440.291 43.9226C440.418 43.8701 440.534 43.793 440.631 43.6958C440.728 43.5985 440.805 43.483 440.858 43.3559C440.91 43.2288 440.937 43.0925 440.937 42.955V1.04501C440.937 0.907466 440.91 0.771278 440.857 0.644253C440.804 0.517229 440.727 0.401866 440.63 0.30478C440.532 0.207695 440.417 0.130798 440.289 0.0784975C440.162 0.0261974 440.026 -0.000476165 439.888 6.43334e-06ZM423.126 23.5143H417.888V39.809H413.697V23.5143H408.46V19.9045H423.126V23.5143ZM424.3 38.8777V34.5235C424.3 34.5235 426.679 36.3165 429.534 36.3165C432.388 36.3165 432.278 34.4502 432.278 34.1935C432.278 31.4857 424.19 31.4857 424.19 25.4833C424.19 17.3213 435.976 20.5425 435.976 20.5425L435.829 24.4218C435.829 24.4218 433.853 23.1037 431.62 23.1037C429.387 23.1037 428.582 24.167 428.582 25.3C428.582 28.2278 436.744 27.9363 436.744 33.8287C436.744 42.9037 424.3 38.8795 424.3 38.8795" fill="#A1A1AA"/>
</g>
<mask id="mask1_73_88" style="mask-type:luminance" maskUnits="userSpaceOnUse" x="500" y="0" width="45" height="44">
<path d="M500.935 0H544.935V44H500.935V0Z" fill="white"/>
</mask>
<g mask="url(#mask1_73_88)">
<path fill-rule="evenodd" clip-rule="evenodd" d="M500.935 0H544.935V44H500.935V0ZM534.571 36.8867C532.531 36.8867 531.378 35.8233 530.492 34.375L527.132 36.3275C528.345 38.7255 530.826 40.5552 534.667 40.5552C538.594 40.5552 541.518 38.5165 541.518 34.793C541.518 31.3408 539.534 29.8063 536.022 28.2975L534.988 27.8557C533.213 27.0857 532.445 26.5852 532.445 25.344C532.445 24.3412 533.215 23.573 534.425 23.573C535.611 23.573 536.375 24.0735 537.085 25.344L540.304 23.2778C538.942 20.8817 537.054 19.9668 534.425 19.9668C530.732 19.9668 528.369 22.3282 528.369 25.4302C528.369 28.7943 530.349 30.3875 533.334 31.658L534.368 32.1017C536.254 32.9267 537.378 33.429 537.378 34.8462C537.378 36.0305 536.284 36.8867 534.571 36.8867ZM518.548 36.8592C517.127 36.8592 516.535 35.8875 515.886 34.7325L512.52 36.7712C513.495 38.8355 515.413 40.5478 518.722 40.5478C522.387 40.5478 524.897 38.599 524.897 34.3182V20.2015H520.763V34.2632C520.763 36.3293 519.905 36.8592 518.546 36.8592" fill="#A1A1AA"/>
</g>
<path d="M648.935 44H604.935V0H648.935L626.935 22L648.935 44Z" fill="#A1A1AA"/>
<path d="M742.623 0H719.248C713.552 0 708.935 4.61706 708.935 10.3125V33.6875C708.935 39.3829 713.552 44 719.248 44H742.623C748.318 44 752.935 39.3829 752.935 33.6875V10.3125C752.935 4.61706 748.318 0 742.623 0Z" fill="#A1A1AA"/>
<path d="M715.466 6.53125H746.404V37.4688H715.466V6.53125Z" fill="#A1A1AA"/>
<path fill-rule="evenodd" clip-rule="evenodd" d="M743.963 30.6298C742.281 30.5831 740.975 30.7555 739.881 31.2158C739.566 31.3423 739.061 31.3423 739.019 31.7388C739.188 31.9052 739.208 32.1774 739.356 32.4081C739.608 32.8266 740.05 33.3903 740.45 33.6829L741.796 34.645C742.617 35.1464 743.542 35.4394 744.342 35.9413C744.805 36.2342 745.267 36.6106 745.731 36.9246C745.966 37.0918 746.109 37.3648 746.404 37.4688V37.405C746.257 37.2175 746.214 36.9457 746.068 36.7357L745.436 36.1297C744.826 35.3143 744.068 34.6027 743.248 34.0178C742.574 33.5577 741.102 32.9306 740.828 32.1573L740.787 32.1104C741.249 32.0636 741.796 31.9009 742.238 31.7754C742.954 31.5879 743.606 31.6291 744.342 31.4411L745.352 31.1482V30.9607C744.974 30.5845 744.7 30.0824 744.301 29.7273C743.228 28.8073 742.049 27.9079 740.828 27.1552C740.176 26.7372 739.334 26.4648 738.64 26.11C738.387 25.9844 737.967 25.9217 737.82 25.7127C737.44 25.2534 737.23 24.6464 736.957 24.1024L735.232 20.4641C734.853 19.6486 734.621 18.833 734.159 18.0804C731.991 14.5255 729.634 12.3721 726.015 10.2597C725.237 9.82059 724.311 9.6317 723.327 9.40208L721.749 9.31786C721.412 9.17159 721.076 8.77405 720.781 8.58567C719.582 7.83286 716.489 6.20211 715.604 8.35141C715.036 9.71042 716.446 11.0485 716.925 11.7389C717.283 12.2198 717.745 12.7633 717.999 13.3071C718.14 13.6623 718.187 14.0391 718.335 14.4155C718.671 15.3354 718.987 16.3604 719.429 17.2181C719.665 17.6572 719.912 18.1179 720.207 18.5149C720.376 18.7492 720.67 18.8495 720.733 19.2258C720.438 19.6443 720.418 20.2709 720.25 20.7945C719.492 23.1574 719.787 26.0848 720.859 27.8245C721.197 28.347 721.991 29.4975 723.069 29.058C724.016 28.6816 723.805 27.4899 724.078 26.4442C724.142 26.1936 724.1 26.0262 724.226 25.8584V25.9053L725.089 27.6408C725.741 28.6653 726.877 29.732 727.824 30.4434C728.328 30.8198 728.728 31.4684 729.359 31.698V31.6348H729.318C729.191 31.4473 729.002 31.3629 728.833 31.2166C728.455 30.8404 728.034 30.3801 727.739 29.9621C726.856 28.7913 726.078 27.4945 725.383 26.1565C725.046 25.5083 724.751 24.7973 724.479 24.1491C724.352 23.898 724.352 23.5211 724.142 23.3965C723.826 23.8557 723.364 24.2541 723.131 24.8184C722.731 25.7173 722.69 26.8257 722.543 27.9759C722.458 27.9969 722.495 27.9759 722.458 28.0227C721.785 27.856 721.553 27.165 721.301 26.5801C720.67 25.0955 720.564 22.7117 721.111 20.9969C721.258 20.5578 721.89 19.1776 721.638 18.7595C721.511 18.3621 721.091 18.1325 720.859 17.8185C720.585 17.4211 720.292 16.9195 720.102 16.4804C719.597 15.3087 719.345 14.0128 718.798 12.8418C718.544 12.298 718.103 11.7332 717.745 11.2319C717.345 10.6671 716.904 10.2695 716.588 9.60077C716.483 9.3665 716.336 8.99439 716.504 8.74311C716.546 8.57587 716.631 8.50884 716.798 8.47137C717.071 8.23694 717.851 8.53411 718.124 8.65872C718.902 8.97273 719.554 9.26527 720.207 9.70389C720.502 9.91289 720.817 10.3104 721.196 10.4155H721.638C722.312 10.5615 723.069 10.4622 723.699 10.6497C724.815 11.0058 725.824 11.528 726.73 12.0931C729.486 13.8287 731.759 16.2962 733.294 19.245C733.546 19.7259 733.652 20.1651 733.884 20.6669C734.326 21.692 734.873 22.7372 735.314 23.7414C735.756 24.7242 736.177 25.7287 736.808 26.544C737.124 26.9832 738.386 27.2128 738.954 27.4429C739.375 27.6305 740.027 27.7992 740.406 28.0289C741.121 28.468 741.837 28.9699 742.51 29.4508C742.846 29.701 743.899 30.224 743.961 30.6412L743.963 30.6298ZM722.506 12.4587C722.215 12.4562 721.926 12.4913 721.644 12.5632V12.6101H721.686C721.854 12.9448 722.149 13.1749 722.359 13.4678L722.843 14.4715L722.885 14.4248C723.179 14.2158 723.327 13.8811 723.327 13.3798C723.201 13.2335 723.18 13.0867 723.075 12.9405C722.948 12.7315 722.675 12.6254 722.506 12.4587Z" fill="#09090B"/>
<path d="M853 2.58369C852.388 4.04991 851.598 5.43476 850.647 6.70667C848.609 4.59327 846.168 2.91076 843.469 1.75878C840.769 0.606797 837.867 0.00876581 834.933 9.56461e-05C831.998 -0.00857452 829.092 0.572293 826.386 1.7083C823.68 2.84431 821.23 4.51236 819.179 6.61369C817.129 8.71502 815.52 11.2069 814.449 13.9418C813.378 16.6766 812.866 19.5989 812.943 22.5355C813.02 25.4721 813.685 28.3634 814.898 31.0381C816.112 33.7128 817.849 36.1165 820.007 38.107L820.82 38.8318C823.912 41.4424 827.665 43.1455 831.663 43.7523C835.662 44.3591 839.75 43.8459 843.475 42.2697C847.201 40.6935 850.417 38.1157 852.769 34.8219C855.121 31.5281 856.517 27.6467 856.801 23.6078C857.435 18.0793 855.76 11.0113 853 2.58369ZM823.174 38.2887C822.941 38.5746 822.629 38.7851 822.277 38.8937C821.925 39.0022 821.549 39.0038 821.196 38.8984C820.843 38.7929 820.529 38.5851 820.294 38.3012C820.058 38.0173 819.913 37.67 819.875 37.3032C819.836 36.9364 819.908 36.5665 820.08 36.2402C820.251 35.9139 820.516 35.6459 820.84 35.47C821.163 35.2941 821.532 35.2182 821.899 35.2519C822.266 35.2856 822.614 35.4274 822.901 35.6593C823.276 35.9774 823.514 36.4284 823.565 36.9181C823.616 37.4078 823.475 37.9 823.174 38.2887ZM852.863 31.7161C847.476 38.9199 835.891 36.474 828.513 36.8354C828.513 36.8354 827.2 36.9272 825.888 37.107C825.888 37.107 826.387 36.8813 827.021 36.6538C832.226 34.8428 834.669 34.4794 837.836 32.8482C843.765 29.8133 849.694 23.1527 850.87 16.2646C848.607 22.8812 841.729 28.5895 835.483 30.8996C831.183 32.4868 823.445 34.0262 823.445 34.0262L823.128 33.8446C817.877 31.2629 817.697 19.8444 827.292 16.1747C831.5 14.5416 835.484 15.4499 840.053 14.3618C844.897 13.2297 850.509 9.60395 852.773 4.8461C855.306 12.5049 858.383 24.3748 852.863 31.7161Z" fill="#A1A1AA"/>
<path d="M950.623 0H927.248C921.552 0 916.935 4.61706 916.935 10.3125V33.6875C916.935 39.3829 921.552 44 927.248 44H950.623C956.318 44 960.935 39.3829 960.935 33.6875V10.3125C960.935 4.61706 956.318 0 950.623 0Z" fill="#A1A1AA"/>
<path d="M946.356 18.4922C944.544 10.5033 940.77 8.3765 939.807 6.87311C939.41 6.21092 939.058 5.52246 938.755 4.8125C938.704 5.52234 938.61 5.96922 938.007 6.50753C936.796 7.58742 931.651 11.7795 931.219 20.8567C930.815 29.3202 937.44 34.5388 938.316 35.0783C938.989 35.4095 939.808 35.0854 940.208 34.7813C943.402 32.5896 947.765 26.7462 946.359 18.4922" fill="#09090B"/>
<path d="M939.029 30.5716C938.862 32.6664 938.743 33.8836 938.319 35.0807C938.319 35.0807 938.597 37.075 938.792 39.1875H939.483C939.648 37.6999 939.9 36.2231 940.237 34.7648C939.342 34.3248 939.063 32.4098 939.029 30.5716Z" fill="#343535"/>
<path d="M940.235 34.766C939.332 34.3485 939.07 32.3931 939.03 30.5716C939.253 27.5667 939.319 24.5521 939.225 21.5404C939.178 19.9602 939.248 6.90387 938.836 4.99228C939.117 5.6398 939.442 6.26775 939.807 6.87191C940.77 8.3765 944.546 10.5033 946.356 18.4922C947.765 26.7321 943.426 32.56 940.235 34.766Z" fill="#71717A"/>
<path d="M1020.97 38.6015L1023.02 38.1798C1024.96 37.7783 1026.9 37.419 1028.82 36.9698C1030.52 36.5538 1032.07 35.6549 1033.27 34.3814C1034.47 33.108 1035.28 31.5142 1035.6 29.7923C1035.71 29.0942 1035.77 28.3864 1035.75 27.6784L1036.42 27.5134C1038.1 27.145 1039.63 26.3089 1040.85 25.1024C1042.06 23.896 1042.91 22.3689 1043.3 20.6989C1043.47 20.0654 1043.54 19.4111 1043.53 18.7556C1043.53 18.5796 1043.53 18.4017 1043.53 18.1964C1043.7 18.1542 1043.86 18.1102 1044.02 18.0736C1045.99 17.6316 1047.74 16.4882 1048.93 14.856C1049.88 13.6028 1050.54 12.1538 1050.86 10.6144C1051.18 9.07499 1051.15 7.48395 1050.78 5.957C1050.74 5.79567 1050.71 5.62883 1050.66 5.473C1050.58 5.19901 1050.4 4.96611 1050.15 4.81969C1049.9 4.67328 1049.61 4.62383 1049.33 4.68099L1029.77 8.69601C1027.1 9.24479 1024.42 9.79052 1021.75 10.3332C1021.5 10.4199 1021.24 10.4573 1020.98 10.4432C1020.96 10.3075 1020.95 10.1865 1020.95 10.0692C1020.94 8.01584 1020.95 5.957 1020.94 3.90182C1020.93 3.78707 1020.95 3.67253 1021.01 3.57246C1021.07 3.47239 1021.15 3.3912 1021.26 3.33899C1022.35 2.67239 1023.52 2.14284 1024.74 1.76232C1026.38 1.2299 1028.07 0.833779 1029.78 0.577978C1030.78 0.422144 1031.79 0.33231 1032.8 0.220476C1034.94 0.0163162 1037.1 -0.0461528 1039.26 0.0334753C1040.17 0.0518087 1041.08 0.126976 1041.99 0.211309C1042.98 0.30481 1043.97 0.412977 1044.96 0.563311C1047.5 0.893168 1049.97 1.58722 1052.31 2.62399C1052.79 2.84949 1053.24 3.13732 1053.71 3.39766C1053.78 3.43318 1053.85 3.49196 1053.89 3.56548C1053.93 3.639 1053.94 3.72342 1053.93 3.80649C1053.92 3.90549 1053.93 4.00816 1053.93 4.10533V39.8903C1053.93 40.5265 1054.01 40.4036 1053.45 40.7556C1052.32 41.4298 1051.12 41.9577 1049.86 42.3268C1048.15 42.8629 1046.4 43.2493 1044.63 43.4818C1043.53 43.6285 1042.43 43.7495 1041.32 43.8613C1040.81 43.9163 1040.3 43.9255 1039.79 43.9402C1038.76 43.9677 1037.72 44.0153 1036.69 43.9952C1035.53 43.9695 1034.36 43.887 1033.2 43.8137C1031.64 43.7085 1030.1 43.5052 1028.58 43.205C1026.54 42.859 1024.55 42.2578 1022.67 41.4156C1022.17 41.1773 1021.7 40.884 1021.21 40.6181C1021.12 40.5786 1021.05 40.5138 1021 40.4324C1020.96 40.3511 1020.93 40.2572 1020.94 40.1635C1020.96 39.7418 1020.94 39.3201 1020.95 38.8985C1020.95 38.8086 1020.97 38.7225 1020.98 38.5996L1020.97 38.6015ZM1039.28 19.0727C1039.3 19.417 1039.24 19.7616 1039.11 20.0811C1038.86 20.9351 1038.38 21.7026 1037.71 22.2982C1037.05 22.8938 1036.24 23.2941 1035.36 23.4544C1032.98 23.9677 1030.58 24.4389 1028.19 24.9302L1027.15 25.1392C1026.87 25.1835 1026.61 25.2821 1026.37 25.4294C1026.13 25.5767 1025.93 25.7697 1025.76 25.9972C1025.6 26.2247 1025.49 26.482 1025.43 26.7543C1025.37 27.0265 1025.36 27.3082 1025.41 27.5829C1025.46 27.8575 1025.56 28.1197 1025.71 28.354C1025.86 28.5883 1026.06 28.7901 1026.29 28.9477C1026.52 29.1052 1026.78 29.2153 1027.06 29.2716C1027.33 29.3278 1027.61 29.3291 1027.88 29.2753C1028.98 29.0736 1030.06 28.8316 1031.15 28.6098C1031.26 28.5841 1031.38 28.5694 1031.53 28.5456C1031.46 29.4886 1031.11 30.3889 1030.52 31.1306C1029.74 32.1179 1028.62 32.7834 1027.38 33.0006C1025.36 33.4113 1023.34 33.8244 1021.32 34.24C1021.22 34.2583 1021.12 34.2638 1021.03 34.2766C1020.94 34.0089 1020.92 15.2465 1021 14.7882L1046.76 9.50268C1046.75 9.61307 1046.74 9.72318 1046.73 9.83268C1046.51 10.848 1046.05 11.7939 1045.38 12.5864C1044.7 13.3688 1043.78 13.8906 1042.76 14.0604C1040.73 14.4564 1038.7 14.8854 1036.66 15.3015L1034.9 15.6609C1034.44 15.7468 1034.02 15.9833 1033.7 16.3336C1033.39 16.6839 1033.19 17.1286 1033.16 17.5987C1033.13 18.0916 1033.27 18.5793 1033.56 18.9766C1033.86 19.374 1034.28 19.6559 1034.76 19.7731C1035.26 19.8562 1035.76 19.8223 1036.24 19.6741L1038.94 19.1167C1039.04 19.0984 1039.14 19.0911 1039.27 19.0746L1039.28 19.0727Z" fill="#A1A1AA"/>
<path d="M1157.1 20.0392L1137.89 0.830481C1137.63 0.567311 1137.31 0.358545 1136.97 0.216111C1136.63 0.0736774 1136.26 0.000366211 1135.89 0.000366211C1135.51 0.000366211 1135.15 0.0736774 1134.8 0.216111C1134.46 0.358545 1134.15 0.567311 1133.88 0.830481L1129.9 4.81798L1134.96 9.87798C1135.55 9.67423 1136.19 9.64236 1136.81 9.78599C1137.42 9.92963 1137.98 10.243 1138.43 10.6903C1138.87 11.1376 1139.18 11.7009 1139.32 12.3158C1139.46 12.9307 1139.43 13.5725 1139.22 14.168L1144.09 19.0465C1144.82 18.7925 1145.6 18.7917 1146.32 19.0443C1147.05 19.2969 1147.66 19.7877 1148.07 20.4361C1148.47 21.0844 1148.64 21.8515 1148.56 22.6111C1148.47 23.3708 1148.12 24.0776 1147.58 24.6152C1147.03 25.1692 1146.3 25.5148 1145.52 25.5931C1144.75 25.6713 1143.97 25.4773 1143.32 25.0442C1142.67 24.6111 1142.19 23.9658 1141.96 23.2185C1141.73 22.4711 1141.77 21.6682 1142.07 20.9467L1137.53 16.3982V28.369C1138.22 28.711 1138.77 29.2795 1139.09 29.9797C1139.42 30.68 1139.49 31.4696 1139.3 32.2171C1139.11 32.9645 1138.67 33.6246 1138.05 34.0873C1137.44 34.55 1136.68 34.7874 1135.91 34.7599C1135.14 34.7324 1134.4 34.4416 1133.82 33.9361C1133.24 33.4306 1132.85 32.7408 1132.71 31.9818C1132.58 31.2228 1132.71 30.4403 1133.08 29.7649C1133.45 29.0895 1134.04 28.5618 1134.76 28.27V16.1892C1134.34 16.0205 1133.97 15.772 1133.65 15.458C1133.34 15.144 1133.09 14.7707 1132.92 14.3596C1132.75 13.9485 1132.66 13.5078 1132.66 13.0629C1132.66 12.618 1132.75 12.1776 1132.92 11.7672L1127.94 6.77873L1114.77 19.9512C1114.5 20.2143 1114.29 20.5266 1114.15 20.8703C1114.01 21.2141 1113.94 21.5825 1113.94 21.9546C1113.94 22.3267 1114.01 22.6951 1114.15 23.0389C1114.29 23.3826 1114.5 23.6949 1114.77 23.958L1133.98 43.1695C1134.24 43.4327 1134.55 43.6414 1134.9 43.7839C1135.24 43.9263 1135.61 43.9996 1135.98 43.9996C1136.35 43.9996 1136.72 43.9263 1137.06 43.7839C1137.41 43.6414 1137.72 43.4327 1137.98 43.1695L1157.1 24.0487C1157.37 23.7857 1157.58 23.4734 1157.72 23.1296C1157.86 22.7859 1157.93 22.4174 1157.93 22.0454C1157.93 21.6733 1157.86 21.3048 1157.72 20.9611C1157.58 20.6173 1157.37 20.305 1157.1 20.042" fill="#A1A1AA"/>
<path d="M1249.54 0C1247.78 0.0164737 1246.03 0.265292 1244.34 0.740005L1244.22 0.776005C1243.15 0.592986 1242.07 0.492024 1240.99 0.474003C1238.76 0.436003 1236.85 0.960006 1235.31 1.83401C1233.79 1.32201 1230.64 0.440003 1227.31 0.616004C1225 0.738005 1222.48 1.42001 1220.61 3.33602C1218.74 5.25203 1217.75 8.21605 1217.96 12.2501C1218.02 13.3641 1218.34 15.1781 1218.89 17.5301C1219.43 19.8801 1220.19 22.6301 1221.14 25.1402C1222.09 27.6502 1223.13 29.9082 1224.76 31.4402C1225.57 32.2082 1226.69 32.8542 1228.01 32.8002C1228.94 32.7642 1229.77 32.3702 1230.5 31.7882C1230.85 32.2382 1231.22 32.4342 1231.57 32.6162C1232 32.8442 1232.42 33.0002 1232.85 33.1042C1234.05 33.4124 1235.3 33.4743 1236.53 33.2862C1237.06 33.2002 1237.63 33.0322 1238.19 32.7922C1238.21 33.3962 1238.23 33.9882 1238.26 34.5882C1238.33 36.4882 1238.38 38.2422 1238.97 39.7802C1239.06 40.0322 1239.32 41.3263 1240.34 42.4683C1241.36 43.6123 1243.36 44.3243 1245.64 43.8523C1247.25 43.5183 1249.29 42.9163 1250.65 41.0443C1251.99 39.1922 1252.59 36.5362 1252.71 32.2262C1252.74 31.9942 1252.78 31.7962 1252.82 31.6102L1253.14 31.6382H1253.17C1254.89 31.7142 1256.75 31.4782 1258.3 30.7782C1259.68 30.1582 1260.72 29.5342 1261.47 28.4242C1261.66 28.1502 1261.87 27.8182 1261.93 27.2442C1261.98 26.6742 1261.65 25.7782 1261.09 25.3662C1259.96 24.5382 1259.25 24.8522 1258.5 25.0062C1257.75 25.1662 1256.99 25.2548 1256.22 25.2722C1258.41 21.7041 1259.98 17.9121 1260.87 14.5561C1261.4 12.5761 1261.7 10.7501 1261.72 9.15406C1261.74 7.55805 1261.61 6.14404 1260.62 4.92003C1257.54 1.10001 1253.21 0.0440002 1249.86 0.00799995C1249.75 0.00533326 1249.65 0.00466674 1249.54 0.00600008V0ZM1249.46 1.17401C1252.63 1.14401 1256.68 2.00801 1259.59 5.61403C1260.24 6.42404 1260.43 7.60805 1260.41 9.06806C1260.39 10.5261 1260.11 12.2701 1259.6 14.1821C1258.62 17.8861 1256.75 22.2021 1254.13 26.0782C1254.22 26.1428 1254.32 26.1958 1254.43 26.2362C1254.97 26.4562 1256.22 26.6442 1258.72 26.1482C1259.34 26.0182 1259.8 25.9322 1260.28 26.2842C1260.39 26.3787 1260.48 26.4983 1260.54 26.6336C1260.6 26.7689 1260.63 26.9163 1260.62 27.0642C1260.6 27.2876 1260.51 27.5 1260.38 27.6802C1259.9 28.3822 1258.95 29.0482 1257.73 29.5962C1256.65 30.0842 1255.1 30.3382 1253.73 30.3542C1253.04 30.3602 1252.41 30.3082 1251.87 30.1462L1251.83 30.1342C1251.62 32.0762 1251.15 35.9142 1250.84 37.6642C1250.59 39.0762 1250.15 40.1982 1249.32 41.0383C1248.48 41.8783 1247.31 42.3843 1245.72 42.7143C1243.76 43.1223 1242.33 42.6823 1241.41 41.9283C1240.49 41.1783 1240.07 40.1802 1239.81 39.5682C1239.64 39.1482 1239.55 38.6022 1239.46 37.8722C1239.37 36.9982 1239.3 36.121 1239.27 35.2422C1239.21 33.7016 1239.19 32.1598 1239.21 30.6182C1238.39 31.3442 1237.37 31.8282 1236.28 32.0102C1234.98 32.2242 1233.81 32.0142 1233.12 31.8462C1232.78 31.7623 1232.45 31.6381 1232.14 31.4762C1231.82 31.3102 1231.51 31.1222 1231.31 30.7502C1231.19 30.5378 1231.15 30.2889 1231.2 30.0502C1231.26 29.8077 1231.41 29.5943 1231.61 29.4442C1231.99 29.1482 1232.48 28.9842 1233.23 28.8322C1234.59 28.5622 1235.06 28.3762 1235.35 28.1542C1235.59 27.9642 1235.87 27.5802 1236.36 27.0142L1236.36 26.9402C1235.48 26.9144 1234.62 26.6901 1233.84 26.2842C1233.56 26.5722 1232.11 28.0582 1230.35 30.1182C1229.61 30.9802 1228.79 31.4742 1227.92 31.5102C1227.05 31.5462 1226.27 31.1222 1225.61 30.4982C1224.28 29.2462 1223.22 27.0922 1222.29 24.6582C1221.37 22.2221 1220.62 19.5101 1220.09 17.2001C1219.55 14.8901 1219.24 13.0281 1219.19 12.1301C1218.99 8.31205 1219.91 5.74004 1221.49 4.11803C1223.07 2.49602 1225.24 1.88001 1227.35 1.76401C1231.14 1.55201 1234.74 2.83402 1235.46 3.11002C1236.87 2.18601 1238.67 1.61001 1240.93 1.64601C1242 1.66089 1243.07 1.79506 1244.11 2.04601L1244.14 2.03001C1244.6 1.87401 1245.07 1.74334 1245.54 1.63801C1246.83 1.34798 1248.14 1.19379 1249.45 1.17801L1249.46 1.17401ZM1249.74 2.40201H1249.47C1248.39 2.41659 1247.31 2.53446 1246.25 2.75402C1248.35 3.67018 1250.2 5.0858 1251.63 6.87804C1252.5 7.95025 1253.22 9.13418 1253.77 10.3981C1253.98 10.8821 1254.12 11.2921 1254.2 11.6081C1254.24 11.7681 1254.27 11.9021 1254.27 12.0421C1254.28 12.1307 1254.27 12.2199 1254.25 12.3061L1254.24 12.3301C1254.3 13.9361 1253.89 15.0241 1253.84 16.5561C1253.8 17.6681 1254.09 18.9741 1254.16 20.3961C1254.23 21.7361 1254.07 23.2061 1253.17 24.6502C1253.24 24.7382 1253.32 24.8262 1253.39 24.9142C1255.76 21.2941 1257.47 17.2861 1258.38 13.8721C1258.86 12.0321 1259.12 10.3661 1259.14 9.04606C1259.16 7.72605 1258.91 6.76804 1258.59 6.37004C1256.05 3.22402 1252.62 2.42401 1249.74 2.40201ZM1240.69 2.87002C1238.46 2.87402 1236.85 3.53002 1235.64 4.51003C1234.39 5.52403 1233.55 6.91004 1232.99 8.33205C1232.46 9.75313 1232.13 11.2438 1232.02 12.7581L1232.05 12.7441C1232.72 12.3761 1233.61 12.0101 1234.56 11.7981C1235.51 11.5861 1236.53 11.5201 1237.46 11.8681C1238.38 12.2161 1239.15 13.0361 1239.43 14.2801C1240.76 20.2521 1239.01 22.4721 1238.37 24.1461C1238.13 24.7537 1237.92 25.374 1237.74 26.0042C1237.82 25.9815 1237.9 25.9655 1237.99 25.9562C1238.34 25.9372 1238.69 26.0059 1239.01 26.1562C1239.65 26.4162 1240.1 26.9602 1240.34 27.5842C1240.4 27.7495 1240.45 27.9228 1240.47 28.1042C1240.5 28.1802 1240.51 28.2582 1240.51 28.3382C1240.44 30.6218 1240.45 32.9072 1240.53 35.1902C1240.58 36.1782 1240.64 37.0462 1240.72 37.7322C1240.8 38.4162 1240.92 38.9362 1240.99 39.1122C1241.23 39.7002 1241.59 40.4683 1242.23 40.9903C1242.87 41.5123 1243.78 41.8583 1245.46 41.5103C1246.91 41.2083 1247.8 40.7903 1248.4 40.1842C1249 39.5822 1249.36 38.7442 1249.59 37.4582C1249.93 35.5322 1250.62 29.9502 1250.7 28.8982C1250.66 28.1082 1250.78 27.4982 1251.04 27.0342C1251.31 26.5582 1251.73 26.2662 1252.09 26.1082C1252.27 26.0282 1252.43 25.9762 1252.57 25.9382C1252.43 25.7347 1252.27 25.536 1252.11 25.3422C1251.6 24.7371 1251.17 24.0583 1250.85 23.3281C1250.7 23.0278 1250.54 22.7323 1250.37 22.4421C1250.12 22.0021 1249.8 21.4521 1249.47 20.8341C1248.8 19.5961 1248.08 18.0961 1247.7 16.6341C1247.33 15.1761 1247.27 13.6661 1248.23 12.6001C1249.08 11.6541 1250.58 11.2621 1252.82 11.4821C1252.75 11.2901 1252.71 11.1301 1252.6 10.8741C1252.09 9.71204 1251.43 8.6241 1250.63 7.64005C1248.73 5.28403 1245.66 2.94802 1240.91 2.87202H1240.69V2.87002ZM1228.14 2.96402C1227.9 2.96402 1227.66 2.97069 1227.42 2.98402C1225.51 3.09002 1223.71 3.62802 1222.42 4.95603C1221.12 6.28204 1220.27 8.45805 1220.46 12.0621C1220.5 12.7421 1220.8 14.6541 1221.33 16.9221C1221.85 19.1941 1222.59 21.8641 1223.49 24.2222C1224.38 26.5822 1225.46 28.6362 1226.49 29.6082C1227.01 30.0942 1227.46 30.2902 1227.87 30.2742C1228.28 30.2542 1228.77 30.0262 1229.37 29.3242C1230.47 28.037 1231.61 26.785 1232.79 25.5702C1231.96 24.8713 1231.32 23.9717 1230.93 22.9561C1230.54 21.9502 1230.42 20.8611 1230.59 19.7961C1230.78 18.4401 1230.81 17.1721 1230.79 16.1721C1230.76 15.1961 1230.69 14.5481 1230.69 14.1421V14.0861C1230.69 11.9723 1231.07 9.87552 1231.81 7.89605C1232.34 6.53204 1233.12 5.14603 1234.31 4.02403C1233.15 3.65402 1231.09 3.09002 1228.86 2.98402C1228.62 2.97118 1228.38 2.96451 1228.14 2.96402H1228.14ZM1251.57 12.6481C1250.29 12.6641 1249.57 12.9861 1249.19 13.4061C1248.65 14.0021 1248.6 15.0461 1248.93 16.3341C1249.27 17.6221 1249.95 19.0641 1250.59 20.2601C1250.91 20.8601 1251.22 21.4001 1251.48 21.8361C1251.73 22.2761 1251.92 22.5881 1252.03 22.8561C1252.13 23.0975 1252.25 23.3181 1252.36 23.5181C1252.86 22.5001 1252.95 21.5021 1252.9 20.4601C1252.83 19.1721 1252.52 17.8541 1252.57 16.5201C1252.62 14.9601 1252.94 13.9421 1252.97 12.7361C1252.5 12.6795 1252.04 12.6502 1251.57 12.6481ZM1236.01 12.8581C1235.62 12.8611 1235.23 12.9067 1234.84 12.9941C1234.08 13.1731 1233.35 13.4501 1232.66 13.8181C1232.43 13.9381 1232.21 14.0774 1232 14.2361L1231.96 14.2721C1231.98 14.5401 1232.03 15.1901 1232.05 16.1441C1232.07 17.1901 1232.05 18.5241 1231.84 19.9641C1231.39 23.1001 1233.73 25.6962 1236.49 25.7002C1236.65 25.0562 1236.92 24.4042 1237.18 23.7161C1237.95 21.7101 1239.46 20.2481 1238.19 14.5381C1237.98 13.6041 1237.57 13.2261 1237 13.0121C1236.68 12.9016 1236.34 12.8495 1236.01 12.8581ZM1250.97 13.2321H1251.06C1251.19 13.2361 1251.3 13.2494 1251.4 13.2721C1251.5 13.2906 1251.58 13.3251 1251.66 13.3741C1251.7 13.3955 1251.73 13.4244 1251.76 13.4589C1251.78 13.4934 1251.8 13.5326 1251.81 13.5741V13.5901C1251.81 13.678 1251.79 13.7652 1251.74 13.8381C1251.68 13.9389 1251.61 14.0312 1251.53 14.1121C1251.34 14.3178 1251.08 14.4547 1250.8 14.5021C1250.53 14.5344 1250.25 14.467 1250.03 14.3121C1249.93 14.2517 1249.85 14.179 1249.78 14.0961C1249.72 14.0313 1249.68 13.951 1249.66 13.8641C1249.66 13.8213 1249.66 13.7781 1249.67 13.7374C1249.69 13.6967 1249.71 13.6594 1249.74 13.6281C1249.8 13.561 1249.88 13.5055 1249.96 13.4641C1250.28 13.3186 1250.62 13.2384 1250.97 13.2281L1250.97 13.2321ZM1236.19 13.5401C1236.29 13.5401 1236.4 13.5481 1236.51 13.5641C1236.79 13.6041 1237.05 13.6781 1237.25 13.7881C1237.34 13.8374 1237.43 13.9021 1237.5 13.9821C1237.54 14.0261 1237.57 14.0748 1237.58 14.1281C1237.6 14.1814 1237.61 14.2368 1237.6 14.2941C1237.58 14.4001 1237.53 14.4983 1237.46 14.5761C1237.38 14.6693 1237.29 14.7502 1237.19 14.8161C1236.94 14.9852 1236.64 15.0584 1236.34 15.0221C1236.04 14.9732 1235.76 14.8264 1235.55 14.6041C1235.46 14.5146 1235.39 14.4137 1235.33 14.3041C1235.26 14.2082 1235.24 14.0938 1235.25 13.9801C1235.28 13.7801 1235.45 13.6801 1235.61 13.6201C1235.8 13.5607 1235.99 13.5363 1236.19 13.5481L1236.19 13.5401ZM1253.31 27.0042H1253.31C1253.03 27.1042 1252.8 27.1442 1252.61 27.2242C1252.41 27.2958 1252.25 27.4361 1252.16 27.6182C1252.04 27.8282 1251.94 28.2022 1251.97 28.8382C1252.05 28.895 1252.15 28.9382 1252.25 28.9662C1252.57 29.0622 1253.11 29.1262 1253.72 29.1162C1254.92 29.1022 1256.4 28.8302 1257.19 28.4742C1257.84 28.1822 1258.44 27.8022 1258.97 27.3462C1256.34 27.8742 1254.85 27.7342 1253.94 27.3682C1253.71 27.2762 1253.5 27.155 1253.31 27.0042ZM1238.14 27.1742H1238.1C1238 27.1822 1237.85 27.2142 1237.57 27.5182C1236.91 28.2342 1236.68 28.6822 1236.14 29.1022C1235.6 29.5222 1234.89 29.7442 1233.48 30.0242C1233.04 30.1122 1232.78 30.2102 1232.61 30.2882C1232.67 30.3322 1232.66 30.3442 1232.74 30.3862C1232.95 30.4962 1233.22 30.5922 1233.43 30.6462C1234.03 30.7922 1235.03 30.9642 1236.07 30.7922C1237.1 30.6202 1238.18 30.1382 1239.1 28.8862C1239.26 28.6702 1239.28 28.3502 1239.15 28.0062C1239.01 27.6662 1238.73 27.3702 1238.52 27.2862C1238.4 27.2288 1238.27 27.1923 1238.14 27.1782V27.1742Z" fill="#A1A1AA"/>
<path d="M1370.03 0C1369.85 0 1369.68 0.0706692 1369.55 0.196462C1369.43 0.322255 1369.35 0.492868 1369.35 0.670766V12.9614L1366.54 11.3359C1366.37 11.2345 1366.17 11.1809 1365.97 11.1809C1365.76 11.1809 1365.57 11.2345 1365.39 11.3359L1358.63 15.2398C1358.46 15.3379 1358.31 15.4798 1358.21 15.6511C1358.12 15.8224 1358.06 16.0168 1358.06 16.2146V24.0313C1358.06 24.4337 1358.28 24.8049 1358.63 25.0061L1365.39 28.91C1365.57 29.0115 1365.76 29.065 1365.97 29.065C1366.17 29.065 1366.37 29.0115 1366.54 28.91L1373.3 25.0061C1373.47 24.908 1373.62 24.7661 1373.72 24.5948C1373.82 24.4236 1373.87 24.2291 1373.87 24.0313V2.75014C1373.87 2.5551 1373.82 2.36354 1373.72 2.19449C1373.62 2.02543 1373.48 1.88477 1373.31 1.78647L1370.37 0.091671C1370.27 0.0329203 1370.15 0.00132833 1370.03 0ZM1347.9 11.1839C1347.7 11.183 1347.5 11.2355 1347.33 11.3359L1340.57 15.2398C1340.39 15.3379 1340.25 15.4798 1340.15 15.6511C1340.05 15.8224 1340 16.0168 1340 16.2146V24.0313C1340 24.4337 1340.22 24.8049 1340.57 25.0061L1347.33 28.91C1347.68 29.1112 1348.12 29.1112 1348.48 28.91L1355.24 25.0061C1355.41 24.908 1355.55 24.7661 1355.65 24.5948C1355.75 24.4236 1355.81 24.2291 1355.81 24.0313V16.2146C1355.81 16.0168 1355.75 15.8224 1355.65 15.6511C1355.55 15.4798 1355.41 15.3379 1355.24 15.2398L1348.48 11.3359C1348.3 11.2355 1348.1 11.183 1347.9 11.1839ZM1384.03 11.1839C1383.83 11.183 1383.63 11.2355 1383.46 11.3359L1376.7 15.2398C1376.52 15.3379 1376.38 15.4798 1376.28 15.6511C1376.18 15.8224 1376.13 16.0168 1376.13 16.2146V24.0313C1376.13 24.4337 1376.34 24.8049 1376.7 25.0061L1383.25 28.9301C1383.43 29.0338 1383.63 29.0893 1383.83 29.0909C1384.03 29.0925 1384.23 29.04 1384.41 28.9391L1387.63 27.0833C1387.71 27.039 1387.77 26.9759 1387.81 26.9003C1387.86 26.8246 1387.88 26.7389 1387.88 26.6517C1387.88 26.5646 1387.86 26.4789 1387.81 26.4032C1387.77 26.3275 1387.71 26.2645 1387.63 26.2202L1380.64 22.1442V18.133L1384.03 16.1811L1387.42 18.133V20.9279C1387.42 21.3013 1387.73 21.3594 1387.95 21.2342L1391.37 19.2599C1391.54 19.1616 1391.69 19.0209 1391.78 18.8519C1391.88 18.6828 1391.93 18.4913 1391.93 18.2962V16.2169C1391.94 16.0191 1391.88 15.8246 1391.78 15.6533C1391.68 15.4821 1391.54 15.3401 1391.37 15.242L1384.6 11.3382C1384.43 11.2377 1384.23 11.183 1384.03 11.1839ZM1329.84 11.1884C1329.64 11.1875 1329.44 11.24 1329.26 11.3404L1322.5 15.2398C1322.33 15.34 1322.19 15.483 1322.09 15.6548C1321.99 15.8265 1321.94 16.021 1321.93 16.2191V26.1979C1321.93 26.6853 1322.47 26.9871 1322.89 26.7434L1325.89 25.0151C1326.06 24.9166 1326.2 24.7756 1326.3 24.6061C1326.4 24.4366 1326.45 24.2446 1326.45 24.0492V18.1397L1329.84 16.1833L1333.22 18.1397V24.0492C1333.23 24.2442 1333.28 24.4358 1333.38 24.6048C1333.47 24.7739 1333.61 24.9145 1333.78 25.0128L1336.78 26.7434C1336.88 26.7993 1336.99 26.8289 1337.1 26.8292C1337.21 26.8295 1337.32 26.8005 1337.42 26.7452C1337.52 26.6898 1337.6 26.6101 1337.66 26.514C1337.71 26.4179 1337.74 26.3088 1337.74 26.1979V16.2191C1337.74 16.021 1337.69 15.8265 1337.59 15.6548C1337.49 15.483 1337.34 15.34 1337.17 15.2398L1330.41 11.3404C1330.24 11.24 1330.04 11.1875 1329.84 11.1884ZM1365.97 16.1789L1369.35 18.1353V22.1107L1365.97 24.0671L1362.58 22.1107V18.133L1365.97 16.1789ZM1384.03 17.896L1382.1 19.014V21.2454L1384.03 22.3588L1385.97 21.2454V19.014L1384.03 17.896ZM1356.72 26.8261C1356.49 26.8243 1356.26 26.8829 1356.05 26.9961L1349.7 30.6316C1349.5 30.747 1349.33 30.9137 1349.21 31.1147C1349.09 31.3157 1349.03 31.544 1349.03 31.7764V39.0341C1349.03 39.5014 1349.3 39.9418 1349.7 40.1788L1351.37 41.1224C1352.17 41.5137 1352.47 41.5137 1352.83 41.5137C1354.03 41.5137 1354.71 40.8049 1354.71 39.5528V32.3823C1354.71 32.3577 1354.71 32.3331 1354.7 32.31C1354.69 32.287 1354.68 32.266 1354.66 32.2484C1354.64 32.2307 1354.62 32.2168 1354.6 32.2076C1354.58 32.1983 1354.55 32.1938 1354.53 32.1945H1353.72C1353.67 32.1945 1353.62 32.2143 1353.59 32.2495C1353.55 32.2847 1353.53 32.3325 1353.53 32.3823V39.5528C1353.53 40.0961 1352.95 40.6551 1352.01 40.1878L1350.27 39.1951C1350.24 39.1774 1350.22 39.153 1350.2 39.1241C1350.18 39.0953 1350.17 39.0628 1350.17 39.0296V31.7719C1350.17 31.7071 1350.21 31.6311 1350.27 31.5975L1356.62 27.9731C1356.65 27.9563 1356.69 27.9475 1356.72 27.9475C1356.75 27.9475 1356.79 27.9563 1356.82 27.9731L1363.18 31.5953C1363.24 31.6311 1363.27 31.6959 1363.27 31.7719V39.0296C1363.27 39.0641 1363.26 39.0978 1363.24 39.1281C1363.23 39.1583 1363.2 39.1843 1363.18 39.204L1356.82 42.8418C1356.79 42.8586 1356.75 42.8675 1356.72 42.8675C1356.69 42.8675 1356.65 42.8586 1356.62 42.8418L1355 41.8848C1354.95 41.8625 1354.89 41.8513 1354.84 41.8736C1354.55 42.0619 1354.22 42.2086 1353.89 42.3096C1353.78 42.3432 1353.63 42.4103 1353.94 42.5846L1356.05 43.8256C1356.26 43.9367 1356.49 43.9966 1356.72 44C1356.96 44.0017 1357.19 43.9381 1357.38 43.8166L1363.74 40.1788C1363.94 40.0634 1364.11 39.8968 1364.23 39.6958C1364.34 39.4947 1364.41 39.2665 1364.41 39.0341V31.7764C1364.4 31.5444 1364.34 31.3171 1364.22 31.1164C1364.11 30.9158 1363.94 30.7487 1363.74 30.6316L1357.38 26.9983C1357.18 26.8866 1356.95 26.8259 1356.72 26.8261ZM1366.63 30.1755C1366.47 30.1758 1366.31 30.2073 1366.16 30.2683C1366.01 30.3292 1365.88 30.4184 1365.77 30.5307C1365.65 30.643 1365.56 30.7763 1365.5 30.9229C1365.44 31.0695 1365.41 31.2266 1365.41 31.3851C1365.41 31.5437 1365.44 31.7006 1365.5 31.847C1365.57 31.9934 1365.66 32.1263 1365.77 32.2382C1365.88 32.3501 1366.02 32.4388 1366.17 32.4992C1366.31 32.5596 1366.47 32.5905 1366.63 32.5902C1366.96 32.5897 1367.27 32.4619 1367.49 32.235C1367.72 32.0082 1367.85 31.7009 1367.85 31.3806C1367.85 31.0604 1367.72 30.7536 1367.49 30.5275C1367.26 30.3015 1366.95 30.1749 1366.63 30.1755ZM1366.61 30.3678C1367.19 30.3678 1367.65 30.815 1367.65 31.3806C1367.65 31.6522 1367.54 31.9114 1367.34 32.1034C1367.15 32.2954 1366.89 32.4051 1366.61 32.4091C1366.34 32.4062 1366.08 32.2962 1365.89 32.1034C1365.7 31.9106 1365.59 31.6507 1365.6 31.3806C1365.6 31.2478 1365.62 31.116 1365.67 30.993C1365.72 30.87 1365.8 30.7582 1365.89 30.664C1365.99 30.5699 1366.1 30.4952 1366.22 30.4444C1366.35 30.3935 1366.48 30.3675 1366.61 30.3678ZM1366.17 30.6965V32.0536H1366.43V31.5126H1366.67C1366.77 31.5126 1366.8 31.5528 1366.82 31.6288C1366.82 31.64 1366.86 31.9933 1366.87 32.0581H1367.15C1367.12 31.9403 1367.09 31.8188 1367.09 31.6959C1367.06 31.5215 1367.05 31.4008 1366.86 31.3896C1366.96 31.356 1367.12 31.3046 1367.12 31.0542C1367.12 30.6942 1366.81 30.6965 1366.64 30.6965H1366.17ZM1366.43 30.9133H1366.65C1366.72 30.9133 1366.85 30.9133 1366.85 31.0967C1366.85 31.1727 1366.82 31.2979 1366.64 31.2934H1366.43V30.9133ZM1358.42 32.0223C1356.61 32.0223 1355.53 32.7892 1355.53 34.0503C1355.53 35.4321 1356.61 35.801 1358.35 35.9731C1360.43 36.1811 1360.59 36.4762 1360.59 36.8787C1360.59 37.5852 1360.02 37.8781 1358.68 37.8781C1356.99 37.8781 1356.63 37.4667 1356.5 36.6394C1356.49 36.55 1356.41 36.4852 1356.31 36.4852H1355.49C1355.46 36.4845 1355.44 36.489 1355.41 36.4982C1355.39 36.5075 1355.37 36.5214 1355.35 36.539C1355.34 36.5567 1355.32 36.5777 1355.31 36.6007C1355.3 36.6238 1355.3 36.6484 1355.3 36.673C1355.3 37.7283 1355.88 38.9916 1358.66 38.9916C1360.7 38.9916 1361.86 38.209 1361.86 36.8362C1361.86 35.4768 1360.93 35.1146 1358.98 34.853C1357 34.5914 1356.8 34.4594 1356.8 34.0011C1356.8 33.621 1356.96 33.1224 1358.43 33.1224C1359.73 33.1224 1360.22 33.4063 1360.42 34.2761C1360.44 34.367 1360.5 34.414 1360.59 34.417H1361.41C1361.47 34.414 1361.51 34.3961 1361.55 34.3633C1361.58 34.3231 1361.6 34.2768 1361.59 34.2247C1361.46 32.7222 1360.46 32.0223 1358.42 32.0223Z" fill="#A1A1AA"/>
<path d="M1495.97 23.9595H1502.74L1499.2 18.3502L1492.64 28.4876H1489.61L1497.59 16.283C1497.8 16.0841 1498.03 15.9074 1498.28 15.7527L1498.29 15.7444C1498.56 15.5854 1498.87 15.5008 1499.18 15.5H1499.2C1499.5 15.5032 1499.78 15.5897 1500.02 15.7486L1500.02 15.7444C1500.27 15.8992 1500.51 16.0797 1500.72 16.283L1508.71 28.4876H1505.67L1504.26 26.2256H1497.49L1495.97 23.9595ZM1526.88 26.2256V15.6947H1524.36V27.2489C1524.36 27.4146 1524.39 27.5693 1524.46 27.7129L1524.46 27.7046C1524.54 27.8497 1524.64 27.9823 1524.76 28.0982C1524.83 28.2328 1524.95 28.3374 1525.1 28.3923C1525.27 28.4537 1525.46 28.4873 1525.64 28.4917H1537.17L1538.58 26.2298L1526.88 26.2256ZM1485.16 24.2537H1485.23C1486.42 24.2537 1487.51 23.7855 1488.3 23.0233C1488.71 22.6476 1489.04 22.1931 1489.27 21.6878C1489.49 21.1825 1489.61 20.6372 1489.61 20.086V19.9038C1489.61 19.346 1489.49 18.7943 1489.27 18.2818C1489.04 17.7692 1488.71 17.3064 1488.3 16.921C1487.89 16.5295 1487.41 16.2194 1486.89 16.0083C1486.36 15.7972 1485.8 15.6892 1485.23 15.6906H1474.05V28.4876H1476.59V17.9567H1485.03C1485.6 17.9567 1486.11 18.1845 1486.48 18.5491C1486.67 18.7337 1486.83 18.9536 1486.93 19.1961C1487.03 19.4386 1487.09 19.6988 1487.09 19.9618V20.028V20.0239C1487.08 20.5584 1486.87 21.0705 1486.49 21.4532C1486.3 21.6559 1486.07 21.818 1485.82 21.9288C1485.57 22.0395 1485.29 22.0963 1485.01 22.0953H1477.79L1485.36 28.4959H1489L1483.94 24.262L1485.16 24.2537ZM1458.46 28.4876C1456.67 28.4876 1455.06 27.7709 1453.9 26.6192C1453.28 26.0512 1452.78 25.3641 1452.44 24.6007C1452.11 23.8373 1451.93 23.014 1451.93 22.1823V21.9959C1451.93 20.2476 1452.69 18.6734 1453.9 17.5631L1453.91 17.559C1454.5 16.9671 1455.21 16.4969 1455.99 16.176C1456.78 15.8552 1457.62 15.6901 1458.47 15.6906H1466.29C1468.07 15.6906 1469.67 16.4073 1470.83 17.559C1472.01 18.6816 1472.74 20.2476 1472.74 21.9834V22.1823C1472.74 23.9222 1472 25.4924 1470.82 26.615C1470.23 27.2082 1469.52 27.6794 1468.74 28.0005C1467.96 28.3215 1467.12 28.4858 1466.28 28.4834L1458.46 28.4876ZM1466.08 26.2256C1466.63 26.2269 1467.17 26.1184 1467.67 25.9067C1468.17 25.6951 1468.63 25.3848 1469 24.9952C1469.78 24.2355 1470.21 23.208 1470.21 22.1367V21.9834C1470.21 21.4554 1470.11 20.9326 1469.9 20.445C1469.69 19.9573 1469.39 19.5144 1469 19.1415C1468.62 18.7676 1468.16 18.4709 1467.66 18.2683C1467.16 18.0657 1466.63 17.9612 1466.09 17.9608H1458.65C1457.55 17.9618 1456.49 18.3862 1455.71 19.1415C1455.32 19.5088 1455 19.9513 1454.78 20.4421C1454.56 20.9328 1454.45 21.4615 1454.45 21.9959V22.0994V22.0953V22.1243C1454.45 22.6615 1454.56 23.1932 1454.78 23.6873C1454.99 24.1815 1455.31 24.6278 1455.71 24.9994C1456.09 25.3881 1456.55 25.6975 1457.06 25.909C1457.56 26.1205 1458.11 26.2296 1458.66 26.2298L1466.08 26.2256ZM1513.85 28.4876C1512.07 28.4876 1510.46 27.7709 1509.31 26.6192C1508.7 26.0454 1508.22 25.3578 1507.89 24.5975C1507.56 23.8372 1507.39 23.02 1507.39 22.1947V21.9876C1507.39 20.2518 1508.13 18.6858 1509.31 17.5631C1509.9 16.9699 1510.6 16.4987 1511.38 16.1777C1512.16 15.8566 1513 15.6923 1513.85 15.6947H1513.96H1513.95H1523.04L1521.53 17.9567H1514C1512.9 17.9577 1511.84 18.3821 1511.06 19.1374C1510.67 19.5047 1510.35 19.9472 1510.13 20.4379C1509.91 20.9287 1509.8 21.4573 1509.8 21.9917V22.0953V22.0911V22.1201C1509.8 22.6573 1509.91 23.1891 1510.13 23.6832C1510.35 24.1773 1510.66 24.6237 1511.06 24.9952C1511.44 25.3839 1511.9 25.6934 1512.41 25.9049C1512.91 26.1164 1513.46 26.2255 1514.01 26.2256H1523.22L1521.7 28.4876H1513.85ZM1544.76 26.2256H1544.73C1543.81 26.2298 1542.92 25.9138 1542.23 25.3349L1542.23 25.3391C1541.53 24.7852 1541 24.0441 1540.72 23.2055L1540.71 23.1724H1551.52L1552.94 20.9105H1540.71C1540.99 20.0488 1541.51 19.3321 1542.21 18.8142L1542.21 18.8059C1542.92 18.2623 1543.8 17.9674 1544.7 17.9691H1552.22L1553.74 15.7071H1544.54C1542.76 15.7071 1541.16 16.4238 1540 17.5755C1539.4 18.1493 1538.91 18.8369 1538.58 19.5972C1538.25 20.3575 1538.08 21.1747 1538.09 22V22.1077V22.1036V22.2071C1538.09 23.943 1538.82 25.5089 1540 26.6316C1541.16 27.7874 1542.76 28.5 1544.54 28.5H1552.42L1553.93 26.2381L1544.76 26.2256Z" fill="#A1A1AA"/>
<path d="M1631.1 0.00224669C1629.86 0.0256216 1628.65 0.231871 1627.63 0.607245C1626.89 0.87915 1626.16 1.12562 1625.49 1.5199C1624.63 2.02658 1623.72 2.4549 1622.96 3.02552C1622.21 3.58171 1621.61 4.29567 1621.33 5.32417C1620.77 5.59848 1620.37 6.06117 1620.11 6.64898C1619.86 7.24229 1619.74 7.95694 1619.71 8.72866C1619.33 9.04972 1618.95 9.38109 1618.6 9.73997C1615.72 12.6911 1613.93 16.7696 1613.93 21.2659C1613.93 25.7621 1615.72 29.8404 1618.6 32.7911C1618.89 33.0833 1619.19 33.3555 1619.5 33.6216C1619.52 33.9482 1619.54 34.2744 1619.56 34.6044C1619.58 34.9498 1619.58 35.3135 1619.59 35.6459C1619.6 35.9787 1619.62 36.2801 1619.73 36.5225C1619.86 36.7927 1620.13 36.9384 1620.4 37.0563C1620.68 37.1742 1620.98 37.2657 1621.22 37.376C1622.64 38.0309 1624.2 39.0449 1626.13 38.9002C1626.57 40.4103 1627 42.0128 1627.54 43.3493L1627.57 43.4191L1627.64 43.4452C1629.68 44.1781 1632.81 44.0561 1634.88 43.8069C1635.22 43.7667 1635.56 43.6663 1635.85 43.4965C1636.13 43.3267 1636.37 43.0812 1636.46 42.7557L1636.47 42.723L1636.46 42.689C1636.43 42.392 1636.4 42.1019 1636.4 41.7815C1636.69 41.7244 1637.01 41.6732 1637.31 41.5478C1637.65 41.4034 1637.97 41.1497 1638.05 40.7296C1638.16 40.17 1637.99 39.5475 1637.84 38.9301C1637.7 38.3395 1637.59 37.7631 1637.69 37.2835C1637.85 37.2347 1638.01 37.1935 1638.16 37.077C1638.3 36.9566 1638.38 36.7487 1638.4 36.4953C1638.95 36.2276 1639.61 36.1506 1640.33 36.1722C1640.43 36.3458 1640.55 36.518 1640.68 36.6266L1640.71 36.6541L1640.75 36.6627C1641.89 36.89 1642.99 36.9123 1643.95 36.5981C1644.57 36.397 1644.97 35.7229 1645.2 34.9921C1645.43 34.2613 1645.51 33.4583 1645.37 32.8977C1645.2 32.1607 1644.82 30.9823 1644.48 30.2632C1644.29 29.8589 1644.01 29.5997 1643.69 29.4224C1645.05 27.0206 1645.85 24.2407 1645.85 21.2662C1645.85 16.77 1644.07 12.6911 1641.18 9.74031C1641.06 9.61347 1640.93 9.49866 1640.81 9.3835C1640.71 7.6981 1640.38 6.10482 1639.76 4.85392C1639.2 3.71405 1637.7 2.2318 1636.74 1.50649C1635.32 0.426777 1633.17 -0.0365969 1631.1 0.00224669ZM1631.11 0.343589C1633.12 0.305777 1635.21 0.769838 1636.54 1.7784C1637.45 2.46968 1638.95 3.97874 1639.46 5.00448C1640.05 6.21276 1640.38 7.79297 1640.47 9.47494L1640.48 9.54266L1640.53 9.58941C1640.67 9.72175 1640.81 9.84756 1640.94 9.97853C1643.76 12.8674 1645.51 16.8597 1645.51 21.2662C1645.51 24.1207 1644.76 26.9249 1643.32 29.3924L1643.22 29.5588L1643.4 29.6348C1643.72 29.773 1643.98 30.0043 1644.17 30.4068C1644.49 31.0854 1644.88 32.2703 1645.04 32.976C1645.15 33.4332 1645.09 34.2094 1644.88 34.888C1644.66 35.5669 1644.28 36.1337 1643.85 36.2743C1642.98 36.5582 1641.95 36.5431 1640.87 36.3334C1640.75 36.214 1640.64 36.0745 1640.56 35.9206L1640.51 35.8319L1640.41 35.8278C1639.6 35.7968 1638.83 35.869 1638.16 36.2162L1638.06 36.2695L1638.07 36.385C1638.1 36.6401 1638.04 36.7315 1637.94 36.8119C1637.84 36.8924 1637.67 36.947 1637.48 37.0089L1637.39 37.0378L1637.37 37.1289C1637.21 37.7328 1637.36 38.3877 1637.51 39.0092C1637.66 39.631 1637.8 40.2229 1637.72 40.6626C1637.66 40.9541 1637.47 41.1122 1637.18 41.2336C1636.89 41.3553 1636.52 41.4164 1636.19 41.4842L1636.06 41.5106L1636.05 41.6419C1636.03 42.0348 1636.08 42.3597 1636.12 42.6766C1636.06 42.888 1635.9 43.0661 1635.67 43.2026C1635.44 43.3418 1635.13 43.4329 1634.84 43.4686C1632.82 43.7117 1629.76 43.8062 1627.83 43.1407C1627.3 41.8155 1626.87 40.2092 1626.42 38.6871L1626.38 38.551L1626.24 38.5657C1624.38 38.7644 1622.85 37.7562 1621.36 37.067C1621.09 36.9412 1620.79 36.8497 1620.54 36.7425C1620.28 36.6352 1620.1 36.5132 1620.04 36.3774C1619.97 36.2272 1619.94 35.9556 1619.93 35.636C1619.92 35.3163 1619.93 34.9485 1619.9 34.5831C1619.88 34.2324 1619.86 33.8817 1619.83 33.5312L1619.83 33.4604L1619.77 33.4147C1619.45 33.1403 1619.14 32.8527 1618.85 32.5525C1616.02 29.6637 1614.28 25.672 1614.28 21.2662C1614.28 16.8594 1616.02 12.8674 1618.85 9.97853C1619.2 9.61313 1619.59 9.27178 1619.98 8.94144L1620.04 8.89263L1620.04 8.81597C1620.07 8.04116 1620.19 7.34129 1620.43 6.7851C1620.67 6.22892 1621.02 5.81917 1621.53 5.58989L1621.61 5.55586L1621.63 5.47542C1621.88 4.48783 1622.44 3.84055 1623.16 3.29846C1623.89 2.75636 1624.78 2.3308 1625.66 1.81415C1626.29 1.44324 1627 1.2009 1627.75 0.927275C1628.72 0.568058 1629.9 0.365933 1631.11 0.343589ZM1631.27 1.14143C1630.52 1.14899 1629.81 1.28031 1629.21 1.5804C1627.65 2.35555 1625.55 3.63808 1624.83 5.26298C1625.5 6.83082 1624.64 8.26804 1624.58 9.85994C1624.55 10.7069 1624.98 11.4463 1625.01 12.3686C1624.78 12.7464 1624.08 12.7928 1623.6 12.767C1623.44 11.9513 1623.15 11.0345 1622.31 10.9424C1621.12 10.8125 1620.25 11.7963 1620.2 12.8241C1620.13 14.033 1621.13 16.0368 1622.53 15.8979C1623.08 15.8439 1623.21 15.2994 1623.8 15.3049C1624.12 15.9453 1623.31 16.1461 1623.22 16.6039C1623.2 16.7222 1623.29 17.1845 1623.34 17.4014C1623.6 18.4568 1624.17 19.8235 1624.73 20.6272C1625.44 21.6467 1626.84 21.8004 1628.34 21.9004C1628.61 21.3216 1629.6 21.3693 1630.25 21.5206C1629.47 21.2147 1628.75 20.4728 1628.16 19.8159C1627.48 19.0624 1626.78 18.2543 1626.75 17.2694C1628.04 19.0621 1629.11 20.6279 1631.46 21.4168C1633.24 22.0132 1635.31 21.1432 1636.68 20.1838C1637.25 19.785 1637.58 19.1525 1637.99 18.5729C1639.49 16.4039 1640.2 13.3081 1640.04 10.3075C1639.98 9.07 1639.98 7.83663 1639.57 7.00407C1639.13 6.1337 1637.67 5.35476 1636.81 6.14229C1636.65 5.29564 1637.52 4.77245 1638.55 5.07701C1637.82 4.13273 1637.05 2.99733 1636.01 2.41055C1634.76 1.70793 1632.92 1.12493 1631.27 1.14143ZM1626.99 1.94168C1626.97 1.93819 1626.95 1.93948 1626.93 1.94546C1625.18 2.44011 1622.94 3.7082 1622.23 5.2757C1622.78 5.19492 1623.17 4.91476 1623.72 4.8797C1623.92 4.8663 1624.19 4.96701 1624.43 4.90789C1624.91 4.79033 1625.31 3.72711 1625.66 3.3318C1626.01 2.94543 1626.43 2.78043 1626.72 2.42843C1626.9 2.33974 1627.17 2.34524 1627.18 2.06887C1627.12 2.00458 1627.06 1.95233 1626.99 1.94168ZM1629.98 5.34273C1630.04 5.3425 1630.1 5.34674 1630.15 5.35545C1630.56 5.41629 1631.1 5.78514 1630.8 6.28701C1629.21 5.91645 1628.42 6.95251 1627.94 8.02638C1627.51 7.92257 1627.68 7.33682 1627.79 7.03879C1628.05 6.30523 1629.08 5.34376 1629.98 5.34273ZM1624.3 5.50601C1623.1 5.59642 1622.12 6.08454 1621.41 6.8676C1620.64 7.71563 1620.8 9.30444 1620.89 10.4347C1622.29 9.55847 1624.14 10.5034 1624.12 11.9943C1624.78 11.9764 1624.37 11.1638 1624.25 10.6399C1623.85 8.92941 1624.91 7.07041 1624.3 5.50601ZM1638.54 8.09719L1638.62 8.10063C1638.98 8.84691 1639.29 9.63719 1639.74 10.2962C1639.44 11.0032 1637.44 11.6285 1637.47 10.3587C1637.91 10.1703 1638.65 10.3209 1639.03 10.0796C1638.81 9.47288 1638.49 8.95588 1638.54 8.09719ZM1631.61 8.11679C1631.95 8.74138 1632.06 9.39828 1632.55 9.87059C1632.77 10.083 1633.19 10.3426 1632.98 10.9338C1632.93 11.073 1632.57 11.3841 1632.36 11.4453C1631.61 11.6687 1629.84 11.491 1630.44 10.5467C1631.07 10.576 1631.91 10.9534 1632.38 10.4986C1632.02 9.92387 1631.38 8.7871 1631.61 8.11679ZM1635.21 8.73416C1635.41 8.76028 1635.44 9.2051 1635.48 9.30031C1635.93 10.3663 1637.08 11.7292 1637.91 12.6416C1638.12 12.8664 1638.46 13.0819 1638.5 13.2304C1638.6 13.6625 1638.21 14.1802 1638.26 14.4679C1637.12 15.2001 1635.85 15.9976 1633.98 15.8126C1633.58 15.4655 1633.43 14.6927 1633.81 14.1826C1634.02 14.5298 1633.89 15.1681 1634.45 15.2644C1635.51 15.4459 1636.75 14.615 1637.51 14.3249C1637.98 13.5274 1637.47 13.2349 1637.04 12.7216C1636.17 11.6701 1635 10.367 1635.04 8.7926C1635.11 8.74482 1635.16 8.72797 1635.21 8.73416ZM1619.95 10.0012C1619.76 10.1705 1619.58 10.3447 1619.41 10.5237C1616.72 13.2727 1615.06 17.0677 1615.06 21.2659C1615.06 25.4637 1616.72 29.2587 1619.41 32.007C1619.45 32.052 1619.5 32.0936 1619.54 32.1383C1619.44 31.161 1619.3 30.1803 1619.04 29.1673C1618.82 28.333 1618.45 27.5964 1618.18 26.7923C1617.94 26.0474 1617.52 25.1265 1617.41 24.3837C1617.25 23.2827 1618.28 23.2218 1618.95 22.7443C1619.97 22.0063 1620.78 21.5983 1621.89 20.9324C1622.21 20.7351 1623.21 20.2357 1623.32 20.0057C1623.54 19.5499 1622.93 18.9078 1622.77 18.5503C1622.51 17.9855 1622.38 17.5053 1622.34 16.9477C1621.41 16.8006 1620.7 16.2464 1620.28 15.6212C1619.57 14.5872 1619.08 12.6735 1619.69 11.2181C1619.74 11.1036 1619.98 10.8785 1620.02 10.7025C1620.06 10.4948 1620 10.2467 1619.95 10.0012ZM1640.67 10.8379C1640.64 12.6405 1640.38 14.4741 1639.94 16.0429C1639.8 16.5098 1639.61 17.1962 1639.34 17.7569C1639.15 18.1488 1638.57 18.9318 1638.64 19.2776C1638.71 19.6351 1639.97 20.5907 1640.24 20.8506C1640.72 21.3188 1641.65 21.9407 1641.72 22.5316C1641.8 23.1606 1641.45 24.021 1641.26 24.6284C1640.66 26.6538 1640.07 28.5265 1639.38 30.3323C1640.19 29.9294 1641.4 29.3698 1642.46 29.3182C1643.95 26.8958 1644.73 24.1084 1644.73 21.2662C1644.73 17.2237 1643.18 13.5583 1640.67 10.8379ZM1621.91 11.6791C1622.64 11.6901 1623.47 12.5099 1623.22 13.6962C1622.86 13.492 1622.78 12.5934 1622.36 12.5676C1621.76 12.5312 1621.87 13.734 1621.87 14.437C1621.46 14.0623 1621.39 12.9086 1621.69 12.316C1621.34 12.1462 1621.19 12.5034 1621 12.6288C1621.09 11.9578 1621.48 11.6725 1621.91 11.6791ZM1638.99 15.2128C1638.45 16.2234 1637.7 17.3361 1636.15 17.3684C1636.11 17.0422 1636.09 16.5459 1636.15 16.3496C1637.34 16.2351 1638.07 15.6284 1638.99 15.2128ZM1631.52 15.8687C1632.51 16.3912 1634.34 16.4472 1635.69 16.4077C1635.76 16.7033 1635.76 17.0694 1635.77 17.4303C1634.03 17.5169 1631.98 17.0873 1631.52 15.8687ZM1631.33 16.8429C1632.02 18.5678 1634.38 18.3691 1636.37 18.3217C1636.28 18.5454 1636.1 18.8108 1635.86 18.9064C1635.22 19.1663 1633.46 19.3629 1632.57 18.8926C1632.01 18.5936 1631.65 17.9191 1631.34 17.5235C1631.2 17.3324 1630.45 16.8439 1631.33 16.8429ZM1637.96 20.1961C1637.68 20.6045 1637.09 20.8785 1636.86 21.2105C1638.48 20.4264 1638.77 24.1417 1638.14 25.3386C1638.24 25.6954 1638.57 25.8322 1638.71 26.1533C1637.81 27.7703 1636.81 29.2797 1635.89 30.8774C1636.57 30.4512 1637.55 30.8011 1638.36 30.4821C1638.65 30.3653 1638.86 29.6905 1639.09 29.1508C1639.7 27.6661 1640.35 25.7941 1640.63 24.3775C1640.7 24.0544 1640.87 23.3511 1640.83 23.0637C1640.76 22.5494 1640.06 22.1682 1639.71 21.8502C1639.06 21.2624 1638.64 20.7454 1637.96 20.1961ZM1623.73 21.0411C1621.79 21.8076 1619.97 23.1311 1618.35 24.3833C1619.9 27.7019 1620.52 31.7671 1620.63 35.6858C1622.41 36.5142 1623.96 37.7088 1626.37 37.8332C1626.09 35.8652 1625.83 34.1094 1625.68 32.2566C1625.07 32.0018 1624.2 32.2676 1623.64 32.1775C1623.63 31.4958 1624.5 31.8791 1624.58 31.4213C1624.63 31.0748 1624.1 31.0483 1624.27 30.5024C1624.71 30.6633 1624.94 31.018 1625.42 31.1514C1625.85 30.2095 1625.41 28.5424 1625.47 27.7548C1625.48 27.607 1625.55 26.9353 1625.88 27.0536C1626.17 27.1574 1625.86 28.8387 1625.89 29.5839C1625.92 30.2704 1625.81 30.9348 1626.09 31.3659C1628.47 31.0388 1630.88 30.8419 1633.28 30.776C1632.73 30.5388 1632.07 30.3147 1631.35 29.9088C1630.96 29.6888 1629.73 29.2302 1629.62 28.8596C1629.44 28.2684 1630.09 27.9539 1630.2 27.4472C1629.03 28.0865 1628.8 26.8346 1628.52 25.9471C1628.27 25.1434 1628.13 24.5428 1628.07 24.0791C1627.06 23.5979 1625.98 23.1097 1625.11 22.4924C1624.95 22.3796 1623.88 20.983 1623.73 21.0411ZM1637.06 21.9365C1636.31 21.8997 1635.24 22.9179 1634.75 23.0915C1634.81 23.2662 1634.91 23.4043 1634.92 23.6274C1635.25 23.5463 1635.65 23.6017 1635.94 23.7419C1635.61 23.7787 1635.24 23.7759 1635.02 23.933C1634.94 24.1644 1635.04 24.4796 1634.99 24.8003C1635.77 25.0213 1636.67 25.1389 1637.66 25.1681C1637.85 24.9179 1637.91 24.4407 1637.89 23.9684C1637.86 23.3988 1637.71 22.2277 1637.36 22.0228C1637.27 21.9702 1637.17 21.9403 1637.06 21.9365ZM1635.29 21.9798C1634.33 22.0654 1633.13 22.6591 1632.18 22.237C1632.18 22.2872 1632.11 22.2689 1632.1 22.3098C1632.75 22.8176 1633.24 22.9224 1634.12 22.8784C1634.52 22.589 1634.87 22.2511 1635.29 21.9798ZM1625.96 21.9967C1625.45 22.5092 1627.38 23.2081 1627.99 23.2455C1627.98 22.921 1628.17 22.6151 1628.14 22.3824C1627.41 22.2548 1626.45 22.3394 1625.96 21.9967ZM1629.29 22.1919C1628.5 22.2081 1628.58 23.5924 1628.62 24.4401C1628.65 25.1557 1629.03 25.913 1629.19 26.3884C1629.26 26.6105 1629.28 26.846 1629.47 26.8903C1629.81 26.9683 1630.91 26.5259 1631.23 26.354C1631.9 25.99 1632.41 25.4125 1632.98 25.0248C1632.99 24.8362 1632.99 24.6477 1633 24.4593C1632.66 24.2895 1632.27 24.1688 1631.77 24.1468C1632.11 23.9763 1632.61 23.9787 1632.91 23.7756C1632.92 23.7 1632.92 23.6248 1632.92 23.5501C1632.36 23.5068 1632.14 23.2552 1631.77 23.0517C1631.16 22.7192 1630.25 22.3576 1629.46 22.2077C1629.41 22.1966 1629.35 22.1913 1629.29 22.1919ZM1633.83 23.3727C1633.69 23.3841 1633.52 23.4428 1633.34 23.5659C1633.3 23.9956 1633.4 24.1362 1633.49 24.6284C1634.63 24.9873 1634.69 23.4837 1633.96 23.3768C1633.92 23.3704 1633.87 23.369 1633.83 23.3727ZM1634.49 25.0836C1634.12 25.0444 1633.82 25.4995 1633.35 25.3025C1633.24 25.4218 1633.14 25.5517 1633.03 25.6683C1634.07 26.923 1634.54 28.7022 1635.35 30.1762C1635.78 28.7599 1635.73 27.2083 1635.82 25.6628C1635.23 25.7006 1634.9 25.1276 1634.49 25.0836ZM1636.88 25.5751C1636.67 25.5787 1636.46 25.6276 1636.28 25.7185C1636.21 27.223 1636.04 29.1969 1635.64 30.3763C1636.6 29.1577 1637.37 27.7397 1638.18 26.3585C1637.92 25.9446 1637.45 25.571 1636.88 25.5751ZM1634.72 26.0186H1634.73C1634.82 26.0207 1634.9 26.0559 1634.96 26.1167C1635.01 26.1775 1635.05 26.2589 1635.05 26.3432C1635.04 26.4276 1635.01 26.5081 1634.95 26.5674C1634.89 26.6266 1634.81 26.6599 1634.73 26.6599C1634.64 26.6599 1634.56 26.6266 1634.5 26.5674C1634.44 26.5081 1634.41 26.4276 1634.4 26.3432C1634.4 26.2589 1634.44 26.1775 1634.49 26.1167C1634.55 26.0559 1634.63 26.0207 1634.72 26.0186ZM1632.52 26.101C1631.6 26.7219 1630.58 27.3059 1630.32 28.4327C1631.64 29.1821 1633.19 29.9215 1634.7 30.3773C1634.06 28.8727 1633.48 27.3138 1632.52 26.101ZM1635.04 27.5063H1635.05C1635.12 27.5064 1635.18 27.5252 1635.23 27.5605C1635.29 27.5958 1635.33 27.646 1635.35 27.7046C1635.37 27.7632 1635.38 27.8277 1635.37 27.8899C1635.36 27.9521 1635.33 28.0092 1635.28 28.054C1635.24 28.0988 1635.18 28.1293 1635.12 28.1416C1635.05 28.1539 1634.99 28.1475 1634.93 28.1232C1634.87 28.0988 1634.82 28.0577 1634.79 28.0049C1634.75 27.9521 1634.73 27.8901 1634.73 27.8267C1634.73 27.6548 1634.87 27.5149 1635.04 27.5063ZM1642.59 30.1016C1642.44 30.0968 1642.3 30.136 1642.18 30.214C1641.33 30.7571 1639.84 30.9153 1639.22 31.5722C1639.53 32.6048 1639.63 34.0224 1639.75 35.3307C1640.81 35.3967 1642.12 35.0392 1643 35.4187C1642.38 35.6181 1641.59 35.6191 1641.05 35.9096C1641.49 36.1193 1642.51 36.0773 1643.17 35.9165C1644.08 35.6951 1644.65 34.5796 1644.4 33.4342C1644.23 32.6642 1643.92 31.2143 1643.6 30.7217C1643.41 30.4484 1643 30.1119 1642.59 30.1016ZM1642.52 31.3219C1641.61 31.5027 1640.98 32.38 1640.1 32.3236C1640.58 31.6413 1641.43 31.3535 1642.52 31.3219ZM1638.24 31.5897C1638.01 31.5797 1637.77 31.6172 1637.56 31.6206C1637.69 32.921 1638 34.3555 1638.12 35.7205C1638.55 35.7343 1638.79 35.528 1639.15 35.4586C1639.16 34.2606 1639.04 32.6103 1638.46 31.6182C1638.39 31.602 1638.31 31.5924 1638.24 31.5897ZM1631.55 31.6041C1629.65 31.6351 1627.66 31.9032 1626.09 32.1957C1626.5 35.9096 1627.08 39.0319 1628.16 42.3205C1630.54 43.0438 1633.41 43.1063 1635.51 42.4535C1635.13 40.5973 1635.3 38.3378 1635.07 36.3571C1634.9 34.8687 1634.99 33.371 1634.75 31.852C1633.8 31.6529 1632.69 31.5856 1631.55 31.6041ZM1636.61 31.7348C1636.17 31.7389 1635.79 31.7303 1635.36 31.8757C1635.34 33.4703 1635.43 35.0433 1635.55 36.64C1636.16 36.5483 1636.58 36.4874 1637.15 36.3626C1636.96 34.8251 1636.99 33.095 1636.61 31.7348ZM1641.55 32.5185C1642.04 32.512 1642.58 32.6189 1642.91 32.7347C1642.18 32.8124 1641.31 32.932 1640.57 32.8705C1640.73 32.6175 1641.12 32.524 1641.55 32.5185ZM1641.43 33.6233C1642.07 33.6154 1642.83 33.7962 1643.17 33.9523C1642.34 33.9705 1641.31 33.9543 1640.53 33.8883C1640.7 33.7013 1641.04 33.6278 1641.43 33.6233ZM1636.41 37.2856C1636.16 37.3234 1635.86 37.453 1635.63 37.4379C1635.59 38.3595 1635.72 39.8366 1635.77 40.8032C1636.38 40.8039 1636.64 40.6698 1637.1 40.5155C1637.15 39.3784 1636.74 38.3255 1636.62 37.2866C1636.56 37.2708 1636.49 37.2732 1636.41 37.2856Z" fill="#A1A1AA"/>
<path d="M1729.97 9.09747L1730.08 9.16144C1728.57 9.96104 1724.24 12.5398 1724.24 15.8221C1724.24 16.9296 1724.87 17.997 1725.47 19.0005C1725.99 19.8841 1726.48 20.7157 1726.48 21.4753C1726.48 23.3884 1724.62 24.8736 1723.57 25.5573L1723.37 25.4413C1723.76 24.9556 1724.25 24.142 1724.25 23.2744C1724.25 22.079 1723.64 21.1235 1723.02 20.154C1722.37 19.1525 1721.72 18.135 1721.72 16.8156C1721.72 12.2339 1727.95 9.77513 1729.97 9.09747ZM1721.79 11.5203C1724.29 9.28138 1727.03 6.8346 1727.03 3.15443C1727.03 1.48926 1726.35 0.425788 1726.01 0L1725.9 0.0619691C1725.98 0.393804 1726.1 1.0055 1726.1 1.8051C1726.1 5.15543 1723.26 7.50227 1720.51 9.77713C1717.92 11.9121 1715.42 13.979 1715.42 16.7457C1715.42 20.7137 1719.34 23.1545 1720.99 24.186L1721.12 24.2659L1721.22 24.2059C1721.13 24.1073 1721.03 24.006 1720.93 23.9021C1719.66 22.5488 1717.73 20.4958 1717.73 17.3554C1717.73 15.1505 1719.68 13.4093 1721.79 11.5203ZM1720.89 31.3264C1724.41 31.3264 1726.88 30.8207 1727.97 30.5108L1729.64 31.4703C1728.05 32.2759 1724.54 32.8896 1720.88 32.8896C1716.57 32.8896 1711.87 31.9661 1711.85 30.7347C1711.84 30.055 1713.38 29.6033 1715.04 29.3114L1715.14 29.3694C1715.14 29.3694 1714.58 29.5713 1714.59 30.035C1714.59 30.7347 1717.42 31.3264 1720.88 31.3264M1713.83 35.6662C1713.83 34.8526 1715.51 34.4668 1716.27 34.3129L1716.37 34.3729C1716.24 34.4708 1716.17 34.6048 1716.17 34.7187C1716.17 35.2524 1718.03 35.7402 1720.88 35.7402C1723.43 35.7402 1724.85 35.4264 1725.7 35.2245L1727.68 36.3699C1727.59 36.4339 1725.64 37.6593 1720.88 37.6593C1717.41 37.6593 1713.83 36.7957 1713.83 35.6662ZM1730.88 32.212C1733.24 30.8666 1735.6 29.2754 1735.73 26.7207C1735.82 25.0435 1734.28 23.8141 1732.59 24.142L1732.68 23.9181V23.9141C1733.11 23.7862 1733.63 23.6822 1734.22 23.6822C1736.1 23.6822 1737.55 24.8116 1737.73 26.3929C1738.1 29.5633 1733.61 31.6263 1731.09 32.3359L1730.88 32.212ZM1734.83 38.185C1734.85 40.3639 1727.43 41.6593 1720.81 41.7172C1715.09 41.7672 1705.87 40.6877 1705.85 38.5088C1705.84 37.0036 1709.85 35.9621 1712.03 35.6622L1712.26 35.7922C1712.26 35.7922 1709.01 36.5458 1709.02 37.9151C1709.03 39.2804 1715.86 40.4619 1720.8 40.4199C1728.45 40.3519 1733.62 39.1065 1734.23 37.4174L1734.34 37.3554C1734.56 37.5193 1734.82 37.7892 1734.83 38.185ZM1711.57 42.6228C1714.39 43.0747 1717.26 43.292 1720.12 43.2725C1732.53 43.1645 1736.03 40.114 1736.57 39.4504L1736.67 39.5063C1736.54 41.9211 1729.97 43.9281 1721.88 43.9981C1717.76 44.0341 1714.01 43.5583 1711.32 42.7687L1711.57 42.6228ZM1716.77 24.066C1714.61 24.2319 1709.98 24.9176 1709.98 26.137C1709.98 27.0605 1714.22 28.3619 1720.88 28.3619C1726.86 28.3619 1730.64 27.2324 1731.52 26.8027L1730.24 26.053C1729.32 26.3029 1725.9 27.0645 1720.88 27.0645C1717.92 27.0645 1712.82 26.5188 1712.82 25.6852C1712.82 24.9376 1716 24.3619 1716.92 24.196L1716.97 24.186L1716.77 24.066Z" fill="#A1A1AA"/>
<path d="M1841.75 34.3111C1840.15 34.7255 1839.16 34.3289 1838.27 32.9712C1836.28 29.9305 1834.08 27.0292 1831.96 24.0743C1831.68 23.692 1831.4 23.3168 1831.04 22.8416C1828.53 26.2932 1826.02 29.5804 1823.67 32.9997C1822.83 34.2217 1821.94 34.7541 1820.37 34.3218L1829.82 21.4124L1821.02 9.75358C1822.53 9.45345 1823.58 9.60709 1824.51 10.9863C1826.55 14.0305 1828.81 16.9282 1831.06 19.9939C1833.32 16.939 1835.55 14.0377 1837.66 11.022C1838.5 9.80003 1839.41 9.33554 1840.93 9.78574C1839.78 11.34 1838.65 12.8693 1837.52 14.3878C1835.99 16.4352 1834.49 18.5075 1832.9 20.512C1832.34 21.2266 1832.43 21.6911 1832.93 22.3664C1835.87 26.2932 1838.77 30.2592 1841.75 34.3111ZM1797.76 21.198C1798.02 19.9081 1798.18 18.5933 1798.54 17.3284C1800.64 9.6714 1809.27 6.48783 1815.21 11.2328C1818.68 14.0162 1819.54 17.9394 1819.37 22.3628H1799.79C1799.49 30.2985 1805.11 35.09 1812.26 32.646C1814.77 31.7885 1816.24 29.7876 1816.99 27.2865C1817.36 26.0323 1817.98 25.8358 1819.14 26.1931C1818.55 29.3231 1817.2 31.9386 1814.4 33.575C1810.18 36.0261 1804.17 35.2329 1801.01 31.8278C1799.14 29.8269 1798.35 27.3365 1798 24.646C1797.95 24.2172 1797.84 23.7956 1797.75 23.3704C1797.76 22.6463 1797.76 21.9221 1797.76 21.198ZM1799.82 20.6656H1817.52C1817.41 14.9273 1813.9 10.8505 1809.1 10.8148C1803.83 10.7719 1800.05 14.7523 1799.82 20.6656Z" fill="#A1A1AA"/>
</svg>
